<?xml version="1.0" encoding="UTF-8" standalone="no"?>
<!-- Created with Inkscape (http://www.inkscape.org/) -->

<svg
   version="1.1"
   id="svg1151"
   width="309.13208"
   height="309.13208"
   viewBox="0 0 309.13208 309.13208"
   sodipodi:docname="Infected_Laptop.svg"
   inkscape:version="1.1.2 (b8e25be833, 2022-02-05)"
   xmlns:inkscape="http://www.inkscape.org/namespaces/inkscape"
   xmlns:sodipodi="http://sodipodi.sourceforge.net/DTD/sodipodi-0.dtd"
   xmlns="http://www.w3.org/2000/svg"
   xmlns:svg="http://www.w3.org/2000/svg">
  <defs
     id="defs1155" />
  <sodipodi:namedview
     id="namedview1153"
     pagecolor="#ffffff"
     bordercolor="#666666"
     borderopacity="1.0"
     inkscape:pageshadow="2"
     inkscape:pageopacity="0.0"
     inkscape:pagecheckerboard="0"
     showgrid="false"
     inkscape:zoom="2.5620117"
     inkscape:cx="154.37088"
     inkscape:cy="154.56604"
     inkscape:window-width="1920"
     inkscape:window-height="1007"
     inkscape:window-x="-9"
     inkscape:window-y="-9"
     inkscape:window-maximized="1"
     inkscape:current-layer="layer1" />
  <g
     inkscape:groupmode="layer"
     id="layer1"
     inkscape:label="Overlay">
    <rect
       style="opacity:1;fill:none;fill-rule:evenodd;stroke:#000000;stroke-width:9.89786;stroke-linejoin:round;stroke-miterlimit:4;stroke-dasharray:none;stroke-opacity:1"
       id="rect1440"
       width="257.62378"
       height="153.51294"
       x="25.363831"
       y="87.320305" />
    <rect
       style="opacity:1;fill:none;fill-rule:evenodd;stroke:#000000;stroke-width:10.8877;stroke-linejoin:round;stroke-miterlimit:4;stroke-dasharray:none;stroke-opacity:1"
       id="rect1442"
       width="299.45593"
       height="29.308432"
       x="5.4407282"
       y="242.02084" />
    <rect
       style="opacity:1;fill:none;fill-opacity:1;fill-rule:evenodd;stroke:#000000;stroke-width:11.339;stroke-linecap:butt;stroke-linejoin:round;stroke-miterlimit:4;stroke-dasharray:none;stroke-opacity:1"
       id="rect3786"
       width="218.57823"
       height="111.63103"
       x="45.66724"
       y="107.33752" />
    <g
       id="g2524"
       transform="translate(0.39031793,-1.5612734)"
       style="fill:#ffffff;fill-opacity:1">
      <path
         id="path1336"
         style="opacity:1;fill:#ffffff;fill-opacity:1;fill-rule:evenodd;stroke:#000000;stroke-width:12.5816;stroke-linejoin:round"
         d="M 154.76172,36.689453 A 54.839718,54.839718 0 0 0 99.921875,91.529297 54.839718,54.839718 0 0 0 115.61523,129.74023 v 32.16016 h 77.51172 V 130.52148 A 54.839718,54.839718 0 0 0 209.60156,91.529297 54.839718,54.839718 0 0 0 154.76172,36.689453 Z" />
      <path
         style="fill:#ffffff;fill-opacity:1;stroke:#000000;stroke-width:11.2967;stroke-linecap:butt;stroke-linejoin:miter;stroke-miterlimit:4;stroke-dasharray:none;stroke-opacity:1"
         d="m 135.05012,127.4879 c -0.39032,32.93291 -0.39032,32.93291 -0.39032,32.93291"
         id="path2208" />
      <path
         style="fill:#ffffff;fill-opacity:1;stroke:#000000;stroke-width:11.2967;stroke-linecap:butt;stroke-linejoin:miter;stroke-miterlimit:4;stroke-dasharray:none;stroke-opacity:1"
         d="m 155.54183,127.17067 c -0.39032,32.93291 -0.39032,32.93291 -0.39032,32.93291"
         id="path2208-3" />
      <path
         style="fill:#ffffff;fill-opacity:1;stroke:#000000;stroke-width:11.2967;stroke-linecap:butt;stroke-linejoin:miter;stroke-miterlimit:4;stroke-dasharray:none;stroke-opacity:1"
         d="m 174.66743,127.17067 c -0.39032,32.93291 -0.39032,32.93291 -0.39032,32.93291"
         id="path2208-3-3" />
      <path
         id="path2356"
         style="opacity:1;fill:#ffffff;fill-opacity:1;fill-rule:evenodd;stroke:#000000;stroke-width:11.1059"
         d="m 140.85196,87.43129 a 10.095322,13.998504 0 0 1 -10.09532,13.9985 10.095322,13.998504 0 0 1 -10.09532,-13.9985 10.095322,13.998504 0 0 1 10.09532,-13.998504 10.095322,13.998504 0 0 1 10.09532,13.998504 z" />
      <path
         id="path2356-5"
         style="fill:#ffffff;fill-opacity:1;fill-rule:evenodd;stroke:#000000;stroke-width:11.1059"
         d="M 190.03204,87.431297 A 10.095322,13.998504 0 0 1 179.93672,101.4298 10.095322,13.998504 0 0 1 169.8414,87.431297 10.095322,13.998504 0 0 1 179.93672,73.432794 10.095322,13.998504 0 0 1 190.03204,87.431297 Z" />
    </g>
    <rect
       style="opacity:1;fill:none;fill-opacity:1;fill-rule:evenodd;stroke:#000000;stroke-width:11.339;stroke-linecap:butt;stroke-linejoin:round;stroke-miterlimit:4;stroke-dasharray:none;stroke-opacity:1"
       id="rect3682"
       width="59.718697"
       height="15.612731"
       x="125.68249"
       y="241.99733" />
  </g>
</svg>
